<svg width="136" height="47" viewBox="0 0 136 47" fill="none" xmlns="http://www.w3.org/2000/svg">
<path d="M13.9 4.46C13.9 5.56667 13.58 6.49333 12.94 7.24C12.3 7.98667 11.28 8.48667 9.88 8.74L14.52 14.06C14.84 14.4333 15.22 14.72 15.66 14.92C16.1 15.1067 16.5467 15.2 17 15.2V16H12.26L7.3 9.92C6.96667 9.52 6.67333 9.25333 6.42 9.12C6.18 8.97333 5.95333 8.9 5.74 8.9V12.82C5.74 13.3133 5.77333 13.72 5.84 14.04C5.90667 14.3467 6.04 14.5867 6.24 14.76C6.44 14.9333 6.72667 15.0533 7.1 15.12C7.48667 15.1733 8 15.2 8.64 15.2V16H0.7V15.2C1.14 15.2 1.49333 15.1733 1.76 15.12C2.04 15.0533 2.25333 14.94 2.4 14.78C2.56 14.6067 2.66667 14.3733 2.72 14.08C2.77333 13.7733 2.8 13.3867 2.8 12.92V3.68C2.8 3.21333 2.78 2.84 2.74 2.56C2.7 2.26667 2.61333 2.04 2.48 1.88C2.34667 1.70667 2.15333 1.59333 1.9 1.54C1.66 1.47333 1.33333 1.42667 0.92 1.4V0.599999H7.84C9.77333 0.599999 11.2667 0.939999 12.32 1.62C13.3733 2.3 13.9 3.24667 13.9 4.46ZM5.74 7.7H7.04C8.29333 7.7 9.22667 7.46 9.84 6.98C10.4667 6.48667 10.78 5.68 10.78 4.56C10.78 3.70667 10.52 3.02 10 2.5C9.48 1.98 8.76 1.72 7.84 1.72H6.1C5.86 1.72 5.74 1.83333 5.74 2.06V7.7ZM23.7686 16H16.6286V15.2C17.0819 15.1867 17.4419 15.1467 17.7086 15.08C17.9886 15 18.2019 14.86 18.3486 14.66C18.4953 14.46 18.5953 14.18 18.6486 13.82C18.7019 13.4467 18.7286 12.9467 18.7286 12.32V4.28C18.7286 3.72 18.7019 3.26 18.6486 2.9C18.6086 2.52667 18.5219 2.23333 18.3886 2.02C18.2553 1.80667 18.0619 1.66 17.8086 1.58C17.5686 1.48667 17.2419 1.42667 16.8286 1.4V0.599999H23.5686V1.4C23.1553 1.42667 22.8219 1.48667 22.5686 1.58C22.3286 1.66 22.1419 1.80667 22.0086 2.02C21.8753 2.23333 21.7819 2.52667 21.7286 2.9C21.6886 3.26 21.6686 3.72 21.6686 4.28V12.32C21.6686 12.9467 21.6886 13.4467 21.7286 13.82C21.7819 14.18 21.8819 14.46 22.0286 14.66C22.1886 14.86 22.4019 15 22.6686 15.08C22.9486 15.1467 23.3153 15.1867 23.7686 15.2V16ZM33.288 0.399999C34.5013 0.399999 35.6346 0.606666 36.688 1.02C37.7413 1.43333 38.6546 2.00667 39.428 2.74C40.2146 3.46 40.828 4.31333 41.268 5.3C41.7213 6.27333 41.948 7.32 41.948 8.44C41.948 9.81333 41.608 11.08 40.928 12.24C40.2613 13.3867 39.3213 14.3533 38.108 15.14C37.8813 15.2867 37.6613 15.42 37.448 15.54C37.248 15.6467 37.0146 15.76 36.748 15.88C36.4813 16 36.168 16.1267 35.808 16.26C35.4613 16.3933 35.0413 16.5467 34.548 16.72C34.2546 16.8267 34.0013 16.92 33.788 17C33.588 17.08 33.408 17.1533 33.248 17.22C33.088 17.3 32.9413 17.3733 32.808 17.44C32.688 17.52 32.568 17.6 32.448 17.68V17.76C32.5413 17.7467 32.6613 17.7333 32.808 17.72C32.9546 17.72 33.0946 17.72 33.228 17.72C33.8013 17.72 34.3413 17.78 34.848 17.9C35.368 18.0333 35.8746 18.1733 36.368 18.32C36.8746 18.4667 37.3813 18.6 37.888 18.72C38.3946 18.8533 38.928 18.92 39.488 18.92C40.128 18.92 40.628 18.8067 40.988 18.58C41.348 18.3533 41.628 17.9733 41.828 17.44H42.568C42.5946 17.6133 42.6146 17.7733 42.628 17.92C42.6413 18.0667 42.648 18.1933 42.648 18.3C42.648 18.7133 42.5546 19.0933 42.368 19.44C42.1813 19.8 41.9213 20.1067 41.588 20.36C41.2546 20.6267 40.8613 20.8333 40.408 20.98C39.9546 21.1267 39.468 21.2 38.948 21.2C38.2013 21.2 37.508 21.0733 36.868 20.82C36.228 20.5667 35.6146 20.2867 35.028 19.98C34.4413 19.6733 33.8813 19.3933 33.348 19.14C32.8146 18.8867 32.288 18.76 31.768 18.76C31.408 18.76 31.1146 18.82 30.888 18.94C30.6613 19.06 30.4546 19.1867 30.268 19.32C30.0946 19.4667 29.9146 19.6 29.728 19.72C29.5546 19.84 29.3413 19.9 29.088 19.9C28.8613 19.9 28.6813 19.8467 28.548 19.74C28.4146 19.6333 28.348 19.5 28.348 19.34C28.348 19.1133 28.448 18.9 28.648 18.7C28.8613 18.5133 29.248 18.2667 29.808 17.96L32.328 16.54C31.2613 16.4467 30.268 16.1733 29.348 15.72C28.428 15.2667 27.628 14.68 26.948 13.96C26.2813 13.24 25.7546 12.4133 25.368 11.48C24.9813 10.5333 24.788 9.52667 24.788 8.46C24.788 7.32667 25.0013 6.26667 25.428 5.28C25.868 4.29333 26.468 3.44 27.228 2.72C27.988 2 28.888 1.43333 29.928 1.02C30.968 0.606666 32.088 0.399999 33.288 0.399999ZM33.288 15.4C34.0746 15.4 34.788 15.24 35.428 14.92C36.068 14.5867 36.608 14.12 37.048 13.52C37.5013 12.92 37.848 12.1933 38.088 11.34C38.3413 10.4867 38.468 9.54 38.468 8.5C38.468 7.46 38.3413 6.52 38.088 5.68C37.848 4.84 37.5013 4.12667 37.048 3.54C36.608 2.95333 36.068 2.5 35.428 2.18C34.788 1.86 34.0746 1.7 33.288 1.7C32.5013 1.7 31.7946 1.86 31.168 2.18C30.5546 2.48667 30.0346 2.93333 29.608 3.52C29.1813 4.10667 28.848 4.82 28.608 5.66C28.3813 6.5 28.268 7.44667 28.268 8.5C28.268 9.56667 28.3813 10.5267 28.608 11.38C28.848 12.2333 29.1813 12.96 29.608 13.56C30.048 14.1467 30.5746 14.6 31.188 14.92C31.8146 15.24 32.5146 15.4 33.288 15.4ZM57.4361 9.8C57.4361 10.9333 57.3094 11.9067 57.0561 12.72C56.8161 13.52 56.4361 14.18 55.9161 14.7C55.3961 15.22 54.7228 15.6 53.8961 15.84C53.0828 16.08 52.1028 16.2 50.9561 16.2C48.8094 16.2 47.2361 15.7533 46.2361 14.86C45.2494 13.9533 44.7561 12.5133 44.7561 10.54V5.06C44.7561 4.54 44.7494 4.10667 44.7361 3.76C44.7228 3.4 44.7028 3.1 44.6761 2.86C44.6494 2.62 44.6094 2.42667 44.5561 2.28C44.5161 2.12 44.4628 1.98667 44.3961 1.88C44.2761 1.69333 44.1028 1.56667 43.8761 1.5C43.6494 1.43333 43.3028 1.4 42.8361 1.4V0.599999H50.0161V1.4C49.4561 1.4 49.0428 1.43333 48.7761 1.5C48.5094 1.55333 48.3028 1.66667 48.1561 1.84C48.0628 1.94667 47.9828 2.08 47.9161 2.24C47.8628 2.38667 47.8161 2.58667 47.7761 2.84C47.7494 3.08 47.7294 3.38 47.7161 3.74C47.7028 4.1 47.6961 4.54 47.6961 5.06V10.3C47.6961 11.82 48.0161 12.9467 48.6561 13.68C49.3094 14.4 50.3094 14.76 51.6561 14.76C54.4028 14.76 55.7761 13.2333 55.7761 10.18V5.56C55.7761 5 55.7628 4.52 55.7361 4.12C55.7228 3.72 55.6894 3.38 55.6361 3.1C55.5961 2.82 55.5361 2.58667 55.4561 2.4C55.3894 2.21333 55.3028 2.06 55.1961 1.94C55.0094 1.75333 54.7694 1.62 54.4761 1.54C54.1828 1.44667 53.7761 1.4 53.2561 1.4V0.599999H59.7361V1.4C59.2428 1.4 58.8628 1.44 58.5961 1.52C58.3294 1.58667 58.1228 1.71333 57.9761 1.9C57.8694 2.02 57.7828 2.18 57.7161 2.38C57.6494 2.56667 57.5961 2.80667 57.5561 3.1C57.5161 3.38 57.4828 3.72 57.4561 4.12C57.4428 4.52 57.4361 5 57.4361 5.56V9.8ZM65.2338 7.48C66.0871 7.48 66.7738 7.45333 67.2938 7.4C67.8138 7.34667 68.2138 7.24 68.4938 7.08C68.7871 6.90667 68.9938 6.66 69.1138 6.34C69.2338 6.02 69.3271 5.58667 69.3938 5.04H70.1338V10.9H69.3938C69.3138 10.3667 69.2071 9.94 69.0738 9.62C68.9404 9.3 68.7271 9.06 68.4338 8.9C68.1404 8.72667 67.7404 8.62 67.2338 8.58C66.7404 8.52667 66.0738 8.5 65.2338 8.5V12.62C65.2338 13.0467 65.2871 13.4067 65.3938 13.7C65.5138 13.9933 65.7071 14.2333 65.9738 14.42C66.2404 14.5933 66.5938 14.72 67.0338 14.8C67.4738 14.8667 68.0138 14.9 68.6538 14.9C69.4138 14.9 70.0538 14.8467 70.5738 14.74C71.1071 14.6333 71.5471 14.4467 71.8938 14.18C72.2404 13.9133 72.5204 13.56 72.7338 13.12C72.9471 12.6667 73.1271 12.1 73.2738 11.42H74.0738L73.7538 16H60.1938V15.2C60.6338 15.1867 60.9938 15.1467 61.2738 15.08C61.5538 15.0133 61.7671 14.9 61.9138 14.74C62.0604 14.58 62.1604 14.3533 62.2138 14.06C62.2671 13.7667 62.2938 13.3867 62.2938 12.92V3.68C62.2938 3.21333 62.2671 2.84 62.2138 2.56C62.1738 2.26667 62.0871 2.04 61.9538 1.88C61.8204 1.70667 61.6271 1.59333 61.3738 1.54C61.1338 1.47333 60.8138 1.42667 60.4138 1.4V0.599999H73.0538L73.1938 4.52H72.3338C72.2538 3.96 72.1271 3.5 71.9538 3.14C71.7804 2.76667 71.5404 2.47333 71.2338 2.26C70.9271 2.03333 70.5271 1.88 70.0338 1.8C69.5538 1.70667 68.9604 1.66 68.2538 1.66H65.9938C65.6471 1.66 65.4338 1.70667 65.3538 1.8C65.2738 1.88 65.2338 2.08 65.2338 2.4V7.48ZM89.3072 16H74.6672V15.54L84.7272 1.64H79.6672C78.6805 1.64 77.9339 1.88667 77.4272 2.38C76.9339 2.87333 76.5939 3.64 76.4072 4.68H75.6272L75.9472 0.599999H88.9072V1.06L78.9472 14.88H84.6672C85.3872 14.88 85.9739 14.82 86.4272 14.7C86.8939 14.58 87.2672 14.3667 87.5472 14.06C87.8405 13.7533 88.0672 13.3467 88.2272 12.84C88.3872 12.3333 88.5272 11.6867 88.6472 10.9H89.5672L89.3072 16ZM99.9247 11.34H94.2647C93.638 12.7533 93.3247 13.7333 93.3247 14.28C93.3247 14.68 93.4714 14.9333 93.7647 15.04C94.0714 15.1467 94.5247 15.2 95.1247 15.2V16H89.6447V15.2C89.9647 15.16 90.238 15.1067 90.4647 15.04C90.7047 14.9733 90.9114 14.88 91.0847 14.76C91.2714 14.64 91.4314 14.4867 91.5647 14.3C91.698 14.1 91.8247 13.86 91.9447 13.58L97.2047 0.399999H98.6847L103.465 12.08C103.745 12.76 103.978 13.2933 104.165 13.68C104.365 14.0667 104.571 14.3667 104.785 14.58C105.011 14.78 105.265 14.92 105.545 15C105.838 15.08 106.211 15.14 106.665 15.18V16H99.1047V15.18C99.7447 15.1533 100.205 15.0867 100.485 14.98C100.765 14.8733 100.905 14.66 100.905 14.34C100.905 14.1533 100.858 13.9133 100.765 13.62C100.671 13.3267 100.545 12.9667 100.385 12.54L99.9247 11.34ZM94.7247 10.14H99.4847L97.1847 4.08H97.1047L94.7247 10.14Z" fill="url(#paint0_linear_197_11)"/>
<path d="M14 29.88C14 31.32 13.44 32.42 12.32 33.18C11.2 33.9267 9.57333 34.3 7.44 34.3H5.74V37.82C5.74 38.3267 5.77333 38.74 5.84 39.06C5.90667 39.3667 6.04667 39.6067 6.26 39.78C6.47333 39.9533 6.76667 40.0667 7.14 40.12C7.51333 40.1733 8.01333 40.2 8.64 40.2V41H0.7V40.2C1.14 40.1867 1.5 40.1467 1.78 40.08C2.06 40.0133 2.27333 39.9 2.42 39.74C2.56667 39.58 2.66667 39.3533 2.72 39.06C2.77333 38.7667 2.8 38.3867 2.8 37.92V28.68C2.8 28.2133 2.77333 27.84 2.72 27.56C2.68 27.2667 2.59333 27.04 2.46 26.88C2.32667 26.7067 2.13333 26.5933 1.88 26.54C1.64 26.4733 1.32 26.4267 0.92 26.4V25.6H7.84C9.86667 25.6 11.4 25.96 12.44 26.68C13.48 27.4 14 28.4667 14 29.88ZM5.74 33.1H7.04C8.33333 33.1 9.28 32.84 9.88 32.32C10.48 31.8 10.78 30.98 10.78 29.86C10.78 28.86 10.5267 28.0867 10.02 27.54C9.51333 26.9933 8.72 26.72 7.64 26.72H6.1C5.86 26.72 5.74 26.8333 5.74 27.06V33.1ZM28.4159 41H14.6359V40.2C15.0759 40.1867 15.4359 40.1467 15.7159 40.08C15.9959 40.0133 16.2093 39.9 16.3559 39.74C16.5026 39.58 16.6026 39.3533 16.6559 39.06C16.7093 38.7667 16.7359 38.3867 16.7359 37.92V28.68C16.7359 28.2133 16.7093 27.84 16.6559 27.56C16.6159 27.2667 16.5293 27.04 16.3959 26.88C16.2626 26.7067 16.0693 26.5933 15.8159 26.54C15.5759 26.4733 15.2559 26.4267 14.8559 26.4V25.6H21.7559V26.4C21.3026 26.4133 20.9359 26.4533 20.6559 26.52C20.3893 26.5867 20.1826 26.7067 20.0359 26.88C19.8893 27.0533 19.7893 27.2933 19.7359 27.6C19.6959 27.9067 19.6759 28.3133 19.6759 28.82V37.2C19.6759 37.76 19.7293 38.22 19.8359 38.58C19.9559 38.9267 20.1559 39.2 20.4359 39.4C20.7159 39.5867 21.0893 39.72 21.5559 39.8C22.0226 39.8667 22.6026 39.9 23.2959 39.9C24.0693 39.9 24.7159 39.8533 25.2359 39.76C25.7559 39.6667 26.1893 39.4933 26.5359 39.24C26.8959 38.9733 27.1826 38.62 27.3959 38.18C27.6093 37.74 27.7893 37.1667 27.9359 36.46H28.7359L28.4159 41ZM38.6536 36.34H32.9936C32.3669 37.7533 32.0536 38.7333 32.0536 39.28C32.0536 39.68 32.2003 39.9333 32.4936 40.04C32.8003 40.1467 33.2536 40.2 33.8536 40.2V41H28.3736V40.2C28.6936 40.16 28.9669 40.1067 29.1936 40.04C29.4336 39.9733 29.6403 39.88 29.8136 39.76C30.0003 39.64 30.1603 39.4867 30.2936 39.3C30.4269 39.1 30.5536 38.86 30.6736 38.58L35.9336 25.4H37.4136L42.1936 37.08C42.4736 37.76 42.7069 38.2933 42.8936 38.68C43.0936 39.0667 43.3003 39.3667 43.5136 39.58C43.7403 39.78 43.9936 39.92 44.2736 40C44.5669 40.08 44.9403 40.14 45.3936 40.18V41H37.8336V40.18C38.4736 40.1533 38.9336 40.0867 39.2136 39.98C39.4936 39.8733 39.6336 39.66 39.6336 39.34C39.6336 39.1533 39.5869 38.9133 39.4936 38.62C39.4003 38.3267 39.2736 37.9667 39.1136 37.54L38.6536 36.34ZM33.4536 35.14H38.2136L35.9136 29.08H35.8336L33.4536 35.14ZM57.8055 41.2L48.9455 28.58H48.8655V37.18C48.8655 37.8467 48.8855 38.3733 48.9255 38.76C48.9788 39.1467 49.0788 39.4467 49.2255 39.66C49.3855 39.8733 49.5988 40.0133 49.8655 40.08C50.1455 40.1467 50.5055 40.1867 50.9455 40.2V41H45.0055V40.2C45.4988 40.1867 45.8921 40.1467 46.1855 40.08C46.4921 40 46.7255 39.86 46.8855 39.66C47.0588 39.46 47.1721 39.18 47.2255 38.82C47.2788 38.4467 47.3055 37.9467 47.3055 37.32V29.28C47.3055 28.72 47.2788 28.26 47.2255 27.9C47.1721 27.5267 47.0721 27.2333 46.9255 27.02C46.7788 26.8067 46.5655 26.66 46.2855 26.58C46.0188 26.4867 45.6588 26.4267 45.2055 26.4V25.6H50.7855L58.8455 37.16H58.9255V29.42C58.9255 28.7667 58.8988 28.2467 58.8455 27.86C58.8055 27.46 58.7055 27.1533 58.5455 26.94C58.3988 26.7267 58.1855 26.5867 57.9055 26.52C57.6388 26.4533 57.2855 26.4133 56.8455 26.4V25.6H62.7855V26.4C62.2921 26.4133 61.8921 26.46 61.5855 26.54C61.2921 26.6067 61.0588 26.74 60.8855 26.94C60.7255 27.14 60.6188 27.4267 60.5655 27.8C60.5121 28.1733 60.4855 28.6667 60.4855 29.28V41.2H57.8055ZM68.5541 32.48C69.4074 32.48 70.0941 32.4533 70.6141 32.4C71.1341 32.3467 71.5341 32.24 71.8141 32.08C72.1074 31.9067 72.3141 31.66 72.4341 31.34C72.5541 31.02 72.6474 30.5867 72.7141 30.04H73.4541V35.9H72.7141C72.6341 35.3667 72.5274 34.94 72.3941 34.62C72.2607 34.3 72.0474 34.06 71.7541 33.9C71.4607 33.7267 71.0607 33.62 70.5541 33.58C70.0607 33.5267 69.3941 33.5 68.5541 33.5V37.62C68.5541 38.0467 68.6074 38.4067 68.7141 38.7C68.8341 38.9933 69.0274 39.2333 69.2941 39.42C69.5607 39.5933 69.9141 39.72 70.3541 39.8C70.7941 39.8667 71.3341 39.9 71.9741 39.9C72.7341 39.9 73.3741 39.8467 73.8941 39.74C74.4274 39.6333 74.8674 39.4467 75.2141 39.18C75.5607 38.9133 75.8407 38.56 76.0541 38.12C76.2674 37.6667 76.4474 37.1 76.5941 36.42H77.3941L77.0741 41H63.5141V40.2C63.9541 40.1867 64.3141 40.1467 64.5941 40.08C64.8741 40.0133 65.0874 39.9 65.2341 39.74C65.3807 39.58 65.4807 39.3533 65.5341 39.06C65.5874 38.7667 65.6141 38.3867 65.6141 37.92V28.68C65.6141 28.2133 65.5874 27.84 65.5341 27.56C65.4941 27.2667 65.4074 27.04 65.2741 26.88C65.1407 26.7067 64.9474 26.5933 64.6941 26.54C64.4541 26.4733 64.1341 26.4267 63.7341 26.4V25.6H76.3741L76.5141 29.52H75.6541C75.5741 28.96 75.4474 28.5 75.2741 28.14C75.1007 27.7667 74.8607 27.4733 74.5541 27.26C74.2474 27.0333 73.8474 26.88 73.3541 26.8C72.8741 26.7067 72.2807 26.66 71.5741 26.66H69.3141C68.9674 26.66 68.7541 26.7067 68.6741 26.8C68.5941 26.88 68.5541 27.08 68.5541 27.4V32.48ZM80.2875 28.68C80.2875 28.2133 80.2608 27.84 80.2075 27.56C80.1675 27.2667 80.0808 27.04 79.9475 26.88C79.8142 26.7067 79.6208 26.5933 79.3675 26.54C79.1275 26.4733 78.8008 26.4267 78.3875 26.4V25.6H85.1275V26.4C84.7142 26.4133 84.3808 26.4533 84.1275 26.52C83.8742 26.5867 83.6808 26.7067 83.5475 26.88C83.4142 27.0533 83.3275 27.2933 83.2875 27.6C83.2475 27.9067 83.2275 28.3133 83.2275 28.82V41.04C83.2275 42.72 82.8008 44 81.9475 44.88C81.0942 45.76 79.8208 46.2 78.1275 46.2C76.9142 46.2 75.9808 45.9933 75.3275 45.58C74.6608 45.1667 74.3275 44.64 74.3275 44C74.3275 43.6133 74.4542 43.3133 74.7075 43.1C74.9475 42.9 75.2475 42.8 75.6075 42.8C75.9142 42.8 76.1608 42.88 76.3475 43.04C76.5208 43.2 76.7408 43.5 77.0075 43.94C77.2742 44.38 77.5142 44.6733 77.7275 44.82C77.9408 44.9667 78.2008 45.04 78.5075 45.04C79.0808 45.04 79.5208 44.7267 79.8275 44.1C80.1342 43.4733 80.2875 42.5933 80.2875 41.46V28.68ZM95.2567 36.34H89.5967C88.9701 37.7533 88.6567 38.7333 88.6567 39.28C88.6567 39.68 88.8034 39.9333 89.0967 40.04C89.4034 40.1467 89.8567 40.2 90.4567 40.2V41H84.9767V40.2C85.2967 40.16 85.5701 40.1067 85.7967 40.04C86.0367 39.9733 86.2434 39.88 86.4167 39.76C86.6034 39.64 86.7634 39.4867 86.8967 39.3C87.0301 39.1 87.1567 38.86 87.2767 38.58L92.5367 25.4H94.0167L98.7967 37.08C99.0767 37.76 99.3101 38.2933 99.4967 38.68C99.6967 39.0667 99.9034 39.3667 100.117 39.58C100.343 39.78 100.597 39.92 100.877 40C101.17 40.08 101.543 40.14 101.997 40.18V41H94.4367V40.18C95.0767 40.1533 95.5367 40.0867 95.8167 39.98C96.0967 39.8733 96.2367 39.66 96.2367 39.34C96.2367 39.1533 96.1901 38.9133 96.0967 38.62C96.0034 38.3267 95.8767 37.9667 95.7167 37.54L95.2567 36.34ZM90.0567 35.14H94.8167L92.5167 29.08H92.4367L90.0567 35.14ZM101.709 41V40.2C102.149 40.1867 102.502 40.1533 102.769 40.1C103.049 40.0333 103.262 39.92 103.409 39.76C103.569 39.5867 103.675 39.36 103.729 39.08C103.782 38.7867 103.809 38.4 103.809 37.92V28.68C103.809 28.2133 103.789 27.84 103.749 27.56C103.709 27.2667 103.622 27.04 103.489 26.88C103.355 26.7067 103.169 26.5933 102.929 26.54C102.702 26.4733 102.402 26.4267 102.029 26.4V25.6H109.629C110.909 25.6 112.089 25.8 113.169 26.2C114.249 26.6 115.182 27.1533 115.969 27.86C116.755 28.5667 117.369 29.4067 117.809 30.38C118.249 31.3533 118.469 32.4133 118.469 33.56C118.469 34.6533 118.262 35.66 117.849 36.58C117.435 37.4867 116.855 38.2667 116.109 38.92C115.375 39.5733 114.489 40.0867 113.449 40.46C112.422 40.82 111.289 41 110.049 41H101.709ZM107.089 26.82C106.862 26.82 106.749 26.9333 106.749 27.16V37.5C106.749 38.2733 106.989 38.8467 107.469 39.22C107.949 39.5933 108.689 39.78 109.689 39.78C111.435 39.78 112.775 39.2533 113.709 38.2C114.655 37.1467 115.129 35.6133 115.129 33.6C115.129 32.5333 115.002 31.58 114.749 30.74C114.495 29.9 114.129 29.1933 113.649 28.62C113.169 28.0333 112.582 27.5867 111.889 27.28C111.209 26.9733 110.442 26.82 109.589 26.82H107.089ZM128.324 36.34H122.664C122.037 37.7533 121.724 38.7333 121.724 39.28C121.724 39.68 121.871 39.9333 122.164 40.04C122.471 40.1467 122.924 40.2 123.524 40.2V41H118.044V40.2C118.364 40.16 118.637 40.1067 118.864 40.04C119.104 39.9733 119.311 39.88 119.484 39.76C119.671 39.64 119.831 39.4867 119.964 39.3C120.097 39.1 120.224 38.86 120.344 38.58L125.604 25.4H127.084L131.864 37.08C132.144 37.76 132.377 38.2933 132.564 38.68C132.764 39.0667 132.971 39.3667 133.184 39.58C133.411 39.78 133.664 39.92 133.944 40C134.237 40.08 134.611 40.14 135.064 40.18V41H127.504V40.18C128.144 40.1533 128.604 40.0867 128.884 39.98C129.164 39.8733 129.304 39.66 129.304 39.34C129.304 39.1533 129.257 38.9133 129.164 38.62C129.071 38.3267 128.944 37.9667 128.784 37.54L128.324 36.34ZM123.124 35.14H127.884L125.584 29.08H125.504L123.124 35.14Z" fill="white"/>
<defs>
<linearGradient id="paint0_linear_197_11" x1="0.214794" y1="-8.74749" x2="137.197" y2="-2.54993" gradientUnits="userSpaceOnUse">
<stop stop-color="#AB7535"/>
<stop offset="0.5" stop-color="#FCD35F"/>
<stop offset="1" stop-color="#AB7535"/>
</linearGradient>
</defs>
</svg>
