<svg width="33" height="33" viewBox="0 0 33 33" fill="none" xmlns="http://www.w3.org/2000/svg">
<g clip-path="url(#clip0_16059_7)">
<path d="M9.10742 13.2705C9.10742 12.2096 9.52885 11.1922 10.279 10.4421C11.0291 9.69194 12.0466 9.27051 13.1074 9.27051L15.1074 13.2705L13.5674 15.5793C14.1783 17.0389 15.339 18.1996 16.7987 18.8105L19.1074 17.2705L23.1074 19.2705C23.1074 20.3314 22.686 21.3488 21.9358 22.0989C21.1857 22.8491 20.1683 23.2705 19.1074 23.2705C16.4553 23.2705 13.9117 22.2169 12.0364 20.3416C10.161 18.4662 9.10742 15.9227 9.10742 13.2705Z" stroke="white" stroke-width="2" stroke-linecap="round" stroke-linejoin="round"/>
<path d="M10.0985 26.6594C12.6192 28.1183 15.5844 28.6106 18.4412 28.0447C21.2981 27.4788 23.8517 25.8932 25.6259 23.5836C27.4 21.274 28.2737 18.398 28.084 15.4918C27.8943 12.5856 26.6541 9.84754 24.5948 7.78817C22.5354 5.7288 19.7974 4.48865 16.8912 4.29894C13.9849 4.10923 11.1089 4.9829 8.79932 6.75707C6.4897 8.53124 4.90412 11.0848 4.3382 13.9417C3.77229 16.7986 4.26465 19.7638 5.72351 22.2844L4.15976 26.9532C4.101 27.1294 4.09247 27.3184 4.13513 27.4992C4.17779 27.68 4.26996 27.8453 4.40129 27.9766C4.53263 28.108 4.69794 28.2001 4.87871 28.2428C5.05948 28.2855 5.24856 28.2769 5.42476 28.2182L10.0985 26.6594Z" stroke="white" stroke-width="2" stroke-linecap="round" stroke-linejoin="round"/>
</g>
<defs>
<clipPath id="clip0_16059_7">
<rect width="32" height="32" fill="white" transform="translate(0.107422 0.270508)"/>
</clipPath>
</defs>
</svg>
